<?xml version="1.0" encoding="UTF-8"?>
<svg id="Warstwa_1" data-name="Warstwa 1" xmlns="http://www.w3.org/2000/svg" width="595.28" height="546" viewBox="0 0 595.28 546">
  <defs>
    <style>
      .cls-1 {
        fill: #fff;
      }
    </style>
  </defs>
  <path class="cls-1" d="m294.87,102.46c.49.26.21.2.06.02-1.52-1.82-3.03-3.65-4.54-5.48-13.02-15.73-27.27-30.19-43.88-42.17-14.95-10.78-30.99-19.09-49.73-20.85-31.93-3-62.82,1.68-92.3,14.07-51.23,21.53-80.09,59.85-84.61,115.63-2.71,33.39,4.22,64.97,18.68,95.08,14.53,30.25,33.65,57.44,54.95,83.18,28.23,34.12,59.68,65.1,92.79,94.44,34.5,30.58,70.6,59.12,108.18,85.81,2.41,1.71,4.14,1.84,6.62.16,13.31-9.04,26.94-17.63,40.09-26.9,42.82-30.21,83.02-63.56,119.54-101.22,35.11-36.21,66.12-75.43,88.21-121.12,17.27-35.72,26.94-73.13,25.22-113.14-1.73-40.21-19.58-71.31-52.55-93.87-26.61-18.21-56.33-28.1-88.24-31.52-43.59-4.68-81.36,8.31-112.83,38.67-9.18,8.86-16.94,19.2-25.65,29.21h0Z"/>
  <path d="m294.87,102.46c8.71-10.01,16.47-20.34,25.65-29.21,31.47-30.36,69.24-43.35,112.83-38.67,31.92,3.42,61.64,13.31,88.24,31.52,32.97,22.56,50.82,53.65,52.55,93.87,1.72,40.02-7.95,77.42-25.22,113.14-22.09,45.69-53.1,84.91-88.21,121.12-36.52,37.66-76.72,71.01-119.54,101.22-13.15,9.27-26.77,17.86-40.09,26.9-2.47,1.68-4.21,1.55-6.62-.16-37.58-26.69-73.68-55.23-108.18-85.81-33.11-29.35-64.56-60.32-92.79-94.44-21.3-25.74-40.42-52.93-54.95-83.18-14.46-30.12-21.38-61.69-18.68-95.08,4.52-55.78,33.38-94.1,84.61-115.63,29.49-12.39,60.37-17.06,92.3-14.07,18.73,1.76,34.78,10.07,49.73,20.85,16.61,11.98,30.86,26.44,43.88,42.17,1.51,1.83,3.01,3.66,4.54,5.48.15.17.42.24-.06-.02h0Zm4.23,261.03c4.33,13.45,9.55,25.87,19.29,35.91,2.61,2.69,5.66,3.58,8.71,1.44,2.43-1.71,5.05-3.93,6.18-6.54,1.37-3.17,1.54-6.96,1.7-10.51.16-3.56,1.6-5.93,4.77-7.33,6.94-3.09,17.68-.41,23.34,5.8,5.8,6.36,7,15.67,2.96,22.93-2.77,4.98-6.11,6.62-11.72,5.74-5.62-.88-10.7,1.32-13.15,5.69-2.93,5.23-2.29,8.94,2.32,14.16,11.14,12.61,25.26,20.95,40.31,27.9,1,.46,3.05-.33,4.11-1.18,32.69-26.18,63.2-54.67,91.15-85.89,4.94-5.52,5.11-5.57,1.75-12.34-6.4-12.88-13.29-25.49-23.75-35.64-6.68-6.49-14.15-4.46-17.22,4.46-.52,1.5-.64,3.17-.75,4.77-.56,7.82-5,12.59-12.81,13.63-11.69,1.57-23.79-9.75-23.05-21.54.56-8.86,8.19-15.24,16.77-14.01,5.84.83,9.02-.84,11.08-5.82,2.19-5.3,1.13-9.47-3.44-12.83-1.5-1.1-3.21-1.91-4.83-2.84-7.45-4.24-14.9-8.48-22.36-12.72-4.62-2.62-9.24-5.24-14.15-8.03-.59,1.29-1.14,2.25-1.47,3.28-1.37,4.27-2.62,8.58-3.99,12.85-3.81,11.84-8.86,23.07-17.4,32.32-6.35,6.89-12.98,6.13-17.35-2.17-1.46-2.78-1.97-6.44-1.76-9.62.33-4.99-.24-6.99-4.68-9.36-6.87-3.66-14.96-2.31-20.61,3.44-5.56,5.66-7.23,15.2-3.79,21.47,1.55,2.82,3.89,4.1,7.11,3.76,4.95-.52,9.37.86,13.4,3.69,8.15,5.71,8.5,12.57.85,18.97-6.98,5.84-14.85,10.07-23.64,12.5-4.43,1.22-8.89,2.34-13.86,3.64l-.02.02Zm16.01-179.78c-13.17,3.77-25.96,7.01-38.42,11.21-5.18,1.75-9.95,5.19-14.36,8.57-4.34,3.33-4.11,7.31-.26,11.22,3.24,3.3,7.14,4.69,11.83,4.51,7.12-.28,10.86,3.07,11.86,10.09,1.27,8.98-3.61,17.29-12.94,21.94-5.72,2.85-11.42,3.34-17.08-.28-5.25-3.36-6.29-7.94-5.23-13.92.85-4.81-1.35-9.22-5.52-11.94-3.83-2.5-7.69-.88-11.29,1.13-6.86,3.83-12.19,9.21-15.24,16.46-3.52,8.39-6.56,16.98-9.96,25.42-1.07,2.66-.04,3.58,2.32,4.18,4.22,1.07,8.38,2.39,12.62,3.38,10.55,2.47,19.99,6.94,27.52,14.93,6.93,7.35,5.73,14.98-3.09,19.98-3.75,2.13-7.71,2.71-11.92,1.87-4.54-.91-6.68.31-8.32,4.65-3.66,9.68,1.29,20.97,10.89,24.82,7.64,3.07,14.73,1.23,18.21-5.33,1.39-2.61,1.6-5.93,1.98-8.98.69-5.52,4.12-8.64,8.87-10.61,4.54-1.88,8.71-.91,11.91,2.73,2.28,2.6,4.52,5.43,5.96,8.54,3.25,7,6,14.24,8.93,21.39,1.54,3.77,2.09,9.6,4.76,10.81,3.09,1.4,8.09-1.03,12.14-2.2,9.21-2.66,17.72-6.78,24.88-13.28,5.38-4.89,5.13-9.51-.5-14.12-3.86-3.15-8.26-4.37-13.25-4.07-4.73.29-7.75-1.83-9.58-6.2-2.96-7.05-1.04-16.7,4.5-22.28,6.17-6.21,13.45-7.78,21.65-4.88,5.07,1.79,9.1,6.13,7.37,12.43-1.37,4.95.92,9,4.7,12.23,2.66,2.27,5.52,2.47,8.12.14,2.3-2.07,4.45-4.37,6.36-6.81,9.39-11.94,13.11-26.41,17.88-40.42.81-2.39.19-3.52-2-4.65-5.1-2.63-10.24-5.26-14.98-8.45-4.3-2.9-8.32-6.31-12.03-9.93-2.58-2.52-2.88-6-1.3-9.41,2.79-6,9-9.36,15.61-8.48,5.31.7,8.55-1.03,10.91-5.83,3-6.09,1.11-14.56-4.52-20.27-5.41-5.49-13.91-7.45-19.93-4.62-2.49,1.17-3.76,2.89-3.71,5.85.04,2.95-.16,6.03-.97,8.85-3.26,11.38-13.36,14.25-22.17,6.27-1.96-1.77-3.58-4.24-4.56-6.7-1.56-3.92-2.45-8.1-3.62-12.17-1.6-5.61-3.18-11.22-5.03-17.75v-.02Zm243.55,61.17c-2.14-.39-3.94-.45-5.51-1.07-5.06-1.99-10.45-3.55-14.96-6.45-6.72-4.33-7.41-10.82-2.97-17.55,3.45-5.24,8.6-7.25,14.51-8.14,4.93-.75,6.34-2.59,6.54-7.49.32-7.74-3.47-13.06-9.9-16.73-6.51-3.72-13.12-3.65-19.56.17-4.09,2.43-5,5.53-3.73,10.2.64,2.37,1.36,4.94,1.05,7.29-.81,6.05-4.49,10.18-10.14,12.38-5.25,2.05-9.55-.12-13.29-3.61-7.11-6.63-12.86-14.3-16.54-23.34-1.19-2.91-2.57-3.35-5.32-2.16-10.42,4.51-20.96,8.72-31.33,13.33-3.26,1.45-6.46,3.41-9.09,5.8-4.27,3.89-4.31,9.03-2.7,14.22,1.5,4.83,5.42,5.04,9.65,5.15,8.25.2,13.87,6.02,14.23,14.31.61,13.92-14.19,24.59-27.82,20.04-6.74-2.25-8.4-5.7-8.12-12.69.16-4-1.15-8.29-2.73-12.07-1.42-3.41-4.66-4.56-8.51-3.32-6,1.92-11.6,4.79-14.66,10.34-3.9,7.06-6.92,14.62-10.17,22.02-.27.62.33,2.21.97,2.56,12.9,7.24,25.84,14.39,38.81,21.49,5.79,3.17,8.02,8.99,5.82,15.64-1.98,5.99-6.45,8.68-13.06,7.65-5.29-.83-9.29,1.08-12.26,5.36-3.79,5.46-3.54,11.04-.05,16.47,4.09,6.38,9.69,10.6,17.63,9.83,6.01-.58,11.64-4.15,11.6-12.61-.03-6.74,3.88-11.59,10.08-14.01,5.44-2.12,8.74,2.17,12.27,5.19,1.32,1.13,2.55,2.43,3.55,3.85,4.43,6.33,9,12.58,13.06,19.14,3.45,5.57,6.28,11.53,9.67,17.87,30.61-36.07,56.67-74.38,72.97-119.07h.01Zm-362.1,197.91c3.32-6.3,6.14-12.28,9.52-17.92,4.54-7.58,10.56-13.91,18.07-18.66,5.92-3.74,10.97-2.56,14.68,3.37,2.58,4.13,3.75,8.66,3.25,13.58-.63,6.14,1.07,8.58,7.06,10.25,8.33,2.33,17.6-1.03,22.13-8.55,2.89-4.81,3.46-10.06.71-15.36-2.53-4.88-6.5-7-11.91-6.72-6.14.33-9.55-2.9-11.72-8.42-2.09-5.31-1.32-9.8,2.59-13.72,1.83-1.84,3.85-3.75,6.16-4.8,7.13-3.25,14.36-6.33,21.72-9.02,5.59-2.04,11.43-3.39,17.74-5.22-3.31-8.84-6.31-17.55-9.87-26.03-1.91-4.55-4.39-9.01-7.33-12.96-4.59-6.16-12.33-5.87-16.65.47-1.29,1.9-1.72,4.62-1.89,7.01-.66,8.88-7.34,15.52-15.74,15.32-14.38-.35-24.46-15.4-19.32-28.83,2.14-5.58,4.75-7.2,10.63-6.1,4.48.84,8.41-.15,12.05-2.69,6.03-4.22,6.74-9.32,1.87-14.87-5.03-5.74-11.24-9.96-18.37-12.54-7.12-2.57-14.49-4.43-21.65-6.9-3.09-1.07-4.08-.09-5.02,2.73-2,6.02-4.12,12.03-6.71,17.81-3.74,8.34-9.36,15.04-18.44,17.99-6.86,2.23-12.67-.84-14.47-7.81-.51-1.98-.32-4.2-.12-6.28.76-7.75-4.05-12.9-11.93-12.63-12.5.43-22.36,12.99-19.8,25.23.95,4.55,2.68,5.91,7.56,5.79,6.8-.17,12.79,2.05,17.89,6.42,4.18,3.58,4.53,7.97,1.04,12.23-1.72,2.1-3.79,3.99-5.94,5.67-11.23,8.79-23.73,15.15-37.44,19.1-1.24.36-2.45.79-4.22,1.36,26.37,29.4,54.47,56.04,83.88,81.68v.02Zm100.09-79.52c-10.83,3.66-21.68,6.9-32.16,11.08-4.72,1.88-9.04,5.24-12.89,8.66-3.39,3.01-3.48,7.59-1.47,11.46,1.94,3.72,4.54,7.18,9.7,6.96,11.33-.47,18.57,9.22,15.14,20.09-2.99,9.48-13.71,16.07-23.5,14.43-9.23-1.54-11.86-4.79-11.29-14.02.3-4.87-1.4-9.07-4.28-12.84-2.26-2.96-5.29-3.69-8.66-2.17-1.8.81-3.52,1.89-5.08,3.1-10.33,8.04-17.12,18.61-21.99,30.63-1.26,3.1-.71,4.78,1.79,6.9,29.89,25.35,60.6,49.63,92.61,72.27,2.44,1.72,4.06,1.83,6.58.24,27.42-17.38,53.81-36.21,79.25-56.38.92-.73,1.73-1.59,2.84-2.62-3.97-2.06-7.54-3.8-10.99-5.74-11.58-6.5-22.77-13.62-30.93-24.34-2.11-2.77-3.84-6.77-3.69-10.11.34-7.48,9.07-13.33,16.52-12.02,5.21.91,8.32-.63,10.51-5.46,3.01-6.64,2.21-13.02-2.24-18.65-4.91-6.2-11.65-8.37-19.36-7.12-4.69.76-5.65,2.69-5.96,7.52-.23,3.63-.52,7.79-2.39,10.68-6.02,9.28-12.62,11.14-20.57,1.69-4.9-5.82-8.34-12.95-11.92-19.76-2.23-4.25-3.5-9-5.56-14.47h0Zm-166.27-184.86c.67,3.25,1.11,5.82,1.74,8.34,2.24,8.94,4.21,17.97,6.96,26.76,1.7,5.43,6.85,8.4,11.46,7.96,4.36-.41,8.67-4.85,9.67-10.19.29-1.56.19-3.23.04-4.83-.41-4.46.96-7.33,5.02-8.96,7.57-3.05,14.76-2.1,21.11,3.07,6.18,5.04,7.6,11.81,5.88,19.29-1.4,6.12-4.96,8.47-11.14,7.83-6.32-.66-13.6,2.84-15.95,7.67-2.25,4.62-.75,10.37,4.48,15.48,9.99,9.75,22.54,14.82,35.67,19.32.61-1.41,1.14-2.51,1.57-3.65,2.37-6.3,4.69-12.62,7.09-18.92,3.65-9.59,9.1-17.78,18.31-22.9,4.49-2.5,9.33-4.33,14.1-1,5.02,3.5,6.97,8.68,6.25,14.72-.95,7.99,3.56,13.06,11.67,12.94,8.65-.13,17.91-7.94,19.51-16.45,1.63-8.68-2.4-13.55-11.24-13.58-.5,0-1,0-1.5-.02-5.89-.38-12.4-5.12-13.61-10.18-1.45-6.11,2.96-9.01,7-12.01,1.1-.82,2.31-1.48,3.49-2.18,8.47-5.02,17.63-8.12,27.24-10.09,6.3-1.29,12.55-2.87,18.87-4.34-3.75-11.07-11.89-25.71-22.33-34.19-4.24-3.45-9.51-5.75-14.96-3.25-5.96,2.73-11.61,6.14-10.65,14.41.48,4.19-1.86,7.1-5.6,8.86-7.71,3.63-16.48,1.63-22.75-5.16-5.67-6.14-6.93-16.06-2.91-22.98,2.63-4.52,6.27-5.68,11.42-4.56,2.79.61,6,.65,8.74-.1,4.4-1.2,6.33-5.12,7.18-9.28.8-3.9-1.76-6.3-4.81-8.1-9.96-5.87-20.59-10.08-31.8-12.88-2.06-.51-3.15-.23-3.85,2.03-.92,2.96-2.17,5.85-3.54,8.64-4.74,9.67-10.95,18.16-20.15,24.11-5.85,3.79-11.82,4.25-17.98.61-5.68-3.36-6.62-8.5-6.14-14.52.45-5.61-2.17-8.89-7.58-10.41-10.72-3.01-21.91,4.79-22.95,16-.91,9.72,2.88,14,12.53,14.19,5.1.1,10.24,3.72,12.14,8.6,1.95,5.02-.51,8.58-3.83,11.98-4.98,5.11-10.94,8.13-17.99,9.18-5.15.77-10.27,1.77-15.89,2.74h0Zm-2.05.9c-7.37.53-19.39,5.19-24.2,9.25-4.55,3.84-5.75,8.44-3.57,13.72,2.46,5.95,6.34,8.44,12.48,7.63,3.75-.5,6.58.77,8.89,3.58,2.75,3.33,4,7.13,3.71,11.45-.87,12.9-15.15,22.45-27.54,18.4-7.05-2.31-9.44-6.16-8.46-13.63.15-1.11.36-2.24.3-3.35-.25-5.2-3.34-8.49-7.72-10.63-4.14-2.03-8.19-1.34-11.38,1.9-2.78,2.82-5.45,5.87-7.57,9.2-7.46,11.78-12.23,24.81-16.64,37.94-.65,1.93-.31,4.76.67,6.59,16.84,31.28,38.46,59.14,61.72,85.83,1.49,1.71,2.91,2.01,4.89,1.24,7.43-2.88,15.28-4.97,22.21-8.76,7.7-4.2,14.87-9.57,21.7-15.12,4.32-3.52,3.63-7.58-.79-10.99-4.37-3.38-9.35-5.25-14.92-5.2-7.16.06-10.49-2.69-10.65-9.82-.32-13.92,7.14-22.57,20-24.65,3.68-.6,8.17.95,11.66,2.75,4.7,2.42,5.11,7.12,4.07,12.08-.93,4.45.87,8.16,4.47,10.75,3.37,2.42,6.98,1.51,10.24-.37,2.68-1.55,5.49-3.16,7.62-5.34,8.46-8.68,11.14-20.25,15.63-31.19-4.96-1.99-9.5-3.67-13.93-5.61-8.84-3.89-17.33-8.37-23.94-15.66-9.12-10.07-6.02-21.19,7.02-25,2.1-.61,4.44-.69,6.64-.57,5.68.31,8.29-1.5,9.55-7.03,2.72-11.93-7.05-22.18-19.68-20.65-6.76.82-8.9,3.36-8.43,9.99.46,6.52-4.14,13.56-9.92,15.19-5.56,1.57-11.92-1.66-14.89-7.99-1.42-3.02-2.38-6.3-3.17-9.55-2.12-8.7-4.03-17.46-6.06-26.38h-.01Zm353.23,5.73c-3.72-9.49-7.31-18.63-10.88-27.78-2.6-6.68-7.98-10.72-13.77-14.25-4.67-2.85-8.04-2.04-9.79,3.13-1.76,5.21-2.53,10.83-3.14,16.34-.64,5.74-2.82,8.64-8.48,9.71-9.8,1.84-20.63-3.89-24.65-13.06-5.69-12.97.66-22.77,14.6-22.53.62,0,1.25.02,1.87,0,3.54-.15,6.15-1.9,7.96-4.85,2.77-4.49,2.28-9.19-1.64-12.93-9.53-9.1-21.53-12.16-34.16-13.36-.81-.08-2.11,1.36-2.63,2.38-2.15,4.22-3.55,8.92-6.23,12.74-4.4,6.28-9.21,12.37-14.54,17.86-3.5,3.6-8.41,5.57-13.77,3.92-7.5-2.31-11.88-8.01-10.19-15.82,1.22-5.67-.75-8.31-6.19-10.22-9.87-3.46-21.23,2.54-23.96,12.65-3.09,11.45,2.1,18.25,13.83,18.36,2.03.02,4.3.41,6.03,1.39,6.15,3.51,9.31,17.75,1.6,22.8-4.86,3.18-10.13,5.81-15.38,8.33-3.43,1.64-7.16,2.64-10.61,3.87,2.52,9.42,4.88,18.45,7.37,27.44,1.42,5.13,4.75,8.7,9.67,10.73,5.15,2.13,10.06.66,12.29-4.41,1.51-3.44,2.36-7.37,2.59-11.13.36-5.77,2.09-8.42,7.74-9.69,10.21-2.3,20.13,3.16,24.37,13.43,5.18,12.54-1.42,22.31-14.75,21.86-4.75-.16-10.27,3.32-11.88,7.69-1.77,4.78.88,8.21,4.33,10.57,8.18,5.62,16.68,10.78,25.48,16.4.93-2.2,1.45-3.43,1.97-4.66,1.95-4.59,3.76-9.25,5.89-13.76,4.03-8.54,10.26-14.68,19.67-17.05,4.78-1.21,7.93,0,10.53,4.21,2.77,4.49,3.98,9.3,3.15,14.66-.72,4.64.8,7.05,5.14,8.73,6.21,2.4,12.31,2,17.95-1.58,6.57-4.17,9.93-12.05,8.23-18.66-1.68-6.56-5.41-8.99-15.17-9.7-3.74-.27-6.3-2.07-7.9-5.4-3.1-6.46-1.41-14.67,4.51-18.75,4.28-2.95,8.99-5.4,13.75-7.5,9.45-4.17,19.08-7.94,29.18-12.1h.01Zm-351.41-8.79c5.3-.88,10.2-1.75,15.12-2.48,7.3-1.08,13.54-4.08,18.48-9.66,3.9-4.4,3.96-9.52-.75-13.01-2.39-1.77-5.86-2.75-8.89-2.85-6.45-.21-10-2.38-11.89-8.55-3.18-10.4,2.16-21.47,12.3-25.46,12.2-4.81,21.74,1.9,21.24,14.96-.17,4.32,1.83,7.43,5.36,9.62,5.35,3.32,10.68,2.89,15.85-.47,7.17-4.66,12.6-10.99,16.68-18.4,2.73-4.94,4.89-10.2,7.55-15.82-8.57-1.75-16.18-3.08-23.66-4.93-4.19-1.03-8.41-2.48-12.17-4.55-4.56-2.52-6.84-6.94-6.47-12.23.34-4.97,3.76-7.93,8.08-9.34,3.83-1.25,7.95-2.04,11.97-2.14,5.7-.14,8.37-1.62,9.93-6.93,2.36-8.05-2.3-17.91-10.02-21.21-7.84-3.34-14.64.15-16.59,8.21-1.49,6.14-5.45,10.46-11.55,12.14-6.07,1.68-10.59-1.61-13.57-6.38-3.14-5.03-5.51-10.56-8.04-15.95-.85-1.8-1.26-3.28-3.92-2.78-27.59,5.24-53.29,14.95-75.55,32.45-6.4,5.03-12.09,10.98-18.59,16.96,2.72,1.5,4.44,2.46,6.17,3.4,10.3,5.57,19.42,12.65,27.34,21.28,4.41,4.81,4.83,11.1,1.16,17.6-3.46,6.13-8.13,8.29-14.96,6.92-6.28-1.26-10.05,1-11.74,7.16-1.92,6.99-.07,13,4.82,18.26,4.94,5.31,11.06,6.47,17.78,5,5.67-1.24,7.51-4.68,8.12-10.37.4-3.74,2.05-7.71,4.21-10.84,4.04-5.85,10.42-6.37,16.47-2.58,8.11,5.09,13.19,12.36,16.2,21.24,1.27,3.75,2.3,7.59,3.53,11.71v.02ZM448.57,38.57c2.28,6.58,5.7,8.73,12.04,8.32,7.97-.52,12.57,3.23,13.26,11.24.72,8.36-3.01,14.86-9.68,19.47-6.44,4.45-13.52,4.75-20.65,1.48-3.34-1.53-4.95-4.18-5.28-7.95-.44-5.08-1.15-10.16-2.17-15.16-.94-4.62-3.64-6.15-8.26-5.12-7.8,1.73-13.43,6.18-17,13.4-6.02,12.19-8.98,25.27-11.9,38.68,4.32.78,8.5,1.37,12.6,2.3,8.41,1.9,16.1,5.4,22.58,11.17,6.33,5.64,6.71,13.02,1.17,18.75-3.25,3.36-7.34,3.85-11.75,3.52-8.2-.61-11.82,2.7-12.11,10.88-.43,12.14,8.73,21.11,21.31,20.86,6.51-.13,9.19-2.67,9.11-9.11-.06-5.72.81-11.18,3.33-16.34,2.53-5.19,6.54-6.71,11.73-4.27,1.68.79,3.3,1.8,4.74,2.98,7.45,6.1,12.25,13.9,15.15,23.08,1.87,5.9,4.37,11.59,6.66,17.56,12.74-4.01,25.02-7.73,37.19-11.75,7.41-2.45,8.46-8.75,2.62-14.07-4.23-3.85-9.31-5.11-14.85-5.01-4.6.08-7.88-2.33-9.09-6.71-3.48-12.6,6.07-26.43,18.96-27.55,4.38-.38,8.06.93,11.3,3.89,4.29,3.92,5.12,8.8,4.76,14.32-.33,4.93,2.57,7.97,8.27,9.53,3.62.99,6.9-.69,9.38-4.46,4.6-7,7.62-14.64,8.91-22.84.43-2.73.07-6.06-1.15-8.5-6.23-12.55-14.95-23.28-25.42-32.55-20.34-18.01-44.31-29.05-70.26-36.19-4.89-1.35-9.86-2.44-15.49-3.83v-.02Zm-131.13,143.55c6.97-3.18,14.54-6.29,21.78-10.03,6.21-3.2,8.21-8.85,6.24-15.18-1.8-5.79-5.9-8.38-12.99-8.18-.75.02-1.5-.05-2.25,0-3.21.23-5.39-1.22-7.11-3.87-5.05-7.75-4.95-16.33.42-23.35,5.5-7.19,14.51-9.96,23.11-7.13,6.1,2.01,8.89,6.3,7.62,12.64-.95,4.73.23,8.39,4.05,11.18,4.09,2.98,8.64,3.7,12.99,1.01,3.24-2,6.3-4.52,8.87-7.34,6.95-7.63,11.77-16.56,15.45-26.7-1.91-.17-3.37-.42-4.82-.41-4.49.02-8.99.11-13.48.23-8,.22-14.22-3.19-19.08-9.33-3.81-4.82-3.19-9.59,1.76-13.27,1.59-1.18,3.31-2.43,5.16-2.97,5.11-1.49,10.3-2.74,15.52-3.84,4.18-.88,5.94-2.45,6.19-6.66.11-1.85-.06-3.75-.39-5.58-1.42-7.82-6.69-12.81-12.7-17.36-2.52-1.9-4.7-2.09-7.53-.87-23.79,10.24-43.54,25.67-59.44,46.05-3.88,4.98-7.39,10.25-11.19,15.55-.76-.93-1.48-1.77-2.16-2.65-13-16.73-27.55-31.91-44.39-44.85-6.85-5.26-17.14-2.76-20.43,5.32-1.2,2.96-1.85,6.23-2.19,9.43-.7,6.57-.95,13.19-1.55,19.77-.27,2.92-.94,5.8-1.46,8.89,2.48.68,4.62,1.28,6.77,1.85,10.32,2.75,20.14,6.72,29.09,12.57,6.21,4.06,6.68,10.4,1.71,15.92-4.18,4.64-9.01,6-15.13,4.47-5.53-1.38-8.67.87-10.37,6.35-2.83,9.14,1.21,18.46,9.81,22.64,9.29,4.51,17.45.52,19.21-9.4.07-.37.1-.74.17-1.11,1.88-10.9,15.81-16.57,25.27-10.85,6.13,3.71,10.5,8.87,14.28,14.52,4.61,6.89,8.42,14.32,13.16,22.53h.03Zm-189.45-5.61c-1.23-4.28-2.21-8.4-3.59-12.38-3.17-9.12-8.01-16.83-17.55-20.66-3.76-1.51-7.06-1.38-10.08,1.29-3.54,3.13-5.74,7.01-5.15,11.86.79,6.48-2.05,9.92-9.12,12.1-12.88,3.99-25.95-6.04-25.96-19.57,0-10.55,5.86-15.65,16.15-14.02,4.68.74,8.77-1.6,11.51-6.6,2.84-5.18,2.61-10.82-.58-14.34-8.56-9.44-18.57-16.94-29.83-22.9-2.92-1.55-4.44-1.14-6.36,1.44-11.16,14.94-18.75,31.53-22.46,49.73-7.88,38.7-2.91,75.93,13.65,111.69,1.63,3.52,3.37,7,5.38,11.17.65-1.56.95-2.24,1.22-2.92,3.45-8.56,6.38-17.37,10.49-25.59,3.48-6.95,7.98-13.48,12.69-19.69,3.01-3.98,7.75-5.34,12.85-3.92,7.28,2.02,11.22,8.42,10.38,16.78-.68,6.76,1.42,9.93,7.66,11.56,11.02,2.89,22.71-4.86,24.41-16.19,1.2-8-4.53-13.92-12.49-13.2-1.87.17-4.06-.26-5.71-1.14-9.33-4.95-10.6-17.55-2.36-24.07,2.79-2.21,6.07-3.99,9.38-5.32,4.83-1.95,9.89-3.31,15.47-5.13v.02Zm435.46-57.15c-.66,2.33-.9,3.65-1.41,4.85-2.58,6.18-4.67,12.66-7.99,18.42-3.66,6.35-8.8,7.82-14.19,5.54-5.11-2.16-7.88-6.8-7.47-12.54.7-9.77-7.28-16.36-16.75-13.83-8.86,2.37-15.54,11.34-15.2,20.41.22,5.9,3.55,9.99,8.65,9.77,4.58-.2,8.44,1.11,12.44,3.15,5.07,2.58,7.59,6.4,7.31,11.92-.24,4.9-4.32,6.44-8.04,7.74-6.47,2.25-13.1,4.06-19.65,6.08-5.45,1.68-10.88,3.41-16.26,5.1,1.99,8.73,12.69,23.97,19.58,28.27,4.48,2.8,9.01,2.44,13.06-1.23,4.39-3.99,5.75-8.7,3.68-14.53-2.09-5.89-.18-10.14,5.25-13.15,13.88-7.71,31.83,2.71,31.89,18.52.02,6.06-2.42,8.95-8.34,10.02-2.2.4-4.49.7-6.53,1.56-5.11,2.15-8.17,6.21-8.88,11.63-.67,5.15,2.87,8.23,6.86,10.15,4.44,2.14,9.28,3.46,13.99,4.98,2.89.93,4.35-.21,5.36-3.27,6.5-19.67,10.52-39.81,11.45-60.48.83-18.55-.46-36.93-6.9-54.6-.44-1.2-1-2.36-1.9-4.47h0Zm-190.7-76.79c2.95,2.37,4.95,3.86,6.82,5.49,4.02,3.52,7.05,7.66,8.42,12.96,2.92,11.38,0,15.29-11.42,17.28-5.36.93-10.66,3.31-15.49,5.94-4.04,2.2-4.3,5.82-1.59,9.61,3.91,5.48,9.2,8.73,16.05,8.98,3.74.13,7.48-.02,11.23-.04,10.1-.06,9.76-.16,12.59-9.96,2.93-10.14,6.17-20.24,10.1-30.03,3.24-8.07,10.14-12.46,18.58-14.14,5.22-1.04,8.62.92,9.84,6.12,1.19,5.06,1.34,10.36,2.45,15.45.51,2.34,1.67,5.12,3.47,6.5,5.25,4.02,15.07,2.83,20.96-1.95,6.15-4.99,8.82-13.64,6.21-20.12-1.67-4.14-4.39-6.27-8.55-5.79-7.54.87-12.8-1.84-15.95-8.81-.46-1.02-1.83-2.13-2.91-2.3-18.47-2.92-36.94-3.36-55.32.73-4.9,1.09-9.71,2.54-15.45,4.06l-.04.02Zm-223.8-5.17c3.76,6.92,6.5,13.4,10.49,18.98,5.15,7.21,12.7,6.86,18.01-.3,1.5-2.02,2.46-4.63,3.01-7.11,1.18-5.34,4.06-8.29,9.49-8.96,10.64-1.3,20.39,6.51,21.46,17.2,1.07,10.63-3.73,15.62-14.28,15.88-3.95.1-8.13,1.32-11.7,3.06-4.62,2.25-5.56,6.41-3.68,11.16,1.72,4.33,5.18,6.88,9.36,7.96,9.85,2.56,19.82,4.67,30.44,7.12.67-5.21,1.35-9.73,1.81-14.27.6-5.95.81-11.95,1.58-17.87,1.09-8.35,5.3-14.13,14.11-15.68.63-.11,1.22-.43,2.03-.72-27.7-21.03-58.78-20.96-92.15-16.45h.02Z"/>
  <path class="cls-1" d="m299.1,363.49c4.97-1.3,9.43-2.42,13.86-3.64,8.79-2.43,16.66-6.66,23.64-12.5,7.65-6.4,7.3-13.26-.85-18.97-4.04-2.83-8.46-4.21-13.4-3.69-3.22.34-5.55-.93-7.11-3.76-3.45-6.27-1.77-15.81,3.79-21.47,5.65-5.75,13.74-7.1,20.61-3.44,4.44,2.37,5.01,4.38,4.68,9.36-.21,3.18.3,6.84,1.76,9.62,4.37,8.3,11,9.06,17.35,2.17,8.54-9.26,13.59-20.48,17.4-32.32,1.37-4.27,2.63-8.58,3.99-12.85.33-1.03.88-1.99,1.47-3.28,4.91,2.79,9.54,5.4,14.15,8.03,7.45,4.24,14.91,8.47,22.36,12.72,1.62.92,3.33,1.74,4.83,2.84,4.56,3.36,5.63,7.53,3.44,12.83-2.06,4.98-5.24,6.66-11.08,5.82-8.58-1.23-16.21,5.15-16.77,14.01-.74,11.79,11.36,23.11,23.05,21.54,7.81-1.05,12.25-5.81,12.81-13.63.11-1.6.24-3.27.75-4.77,3.07-8.93,10.55-10.95,17.22-4.46,10.45,10.15,17.35,22.76,23.75,35.64,3.36,6.76,3.19,6.82-1.75,12.34-27.94,31.22-58.46,59.71-91.15,85.89-1.05.84-3.11,1.64-4.11,1.18-15.05-6.94-29.17-15.28-40.31-27.9-4.61-5.22-5.25-8.93-2.32-14.16,2.45-4.37,7.53-6.57,13.15-5.69s8.95-.75,11.72-5.74c4.04-7.26,2.84-16.57-2.96-22.93-5.66-6.21-16.4-8.89-23.34-5.8-3.17,1.41-4.61,3.77-4.77,7.33-.16,3.55-.33,7.34-1.7,10.51-1.12,2.6-3.74,4.82-6.18,6.54-3.04,2.14-6.09,1.25-8.71-1.44-9.74-10.04-14.96-22.46-19.29-35.91l.02-.02Z"/>
  <path class="cls-1" d="m315.11,183.7c1.85,6.53,3.43,12.14,5.03,17.75,1.16,4.07,2.06,8.25,3.62,12.17.98,2.46,2.6,4.93,4.56,6.7,8.81,7.98,18.9,5.11,22.17-6.27.81-2.82,1.01-5.9.97-8.85-.04-2.96,1.23-4.68,3.71-5.85,6.02-2.83,14.53-.86,19.93,4.62,5.63,5.71,7.51,14.18,4.52,20.27-2.36,4.81-5.6,6.54-10.91,5.83-6.61-.87-12.82,2.49-15.61,8.48-1.59,3.41-1.29,6.89,1.3,9.41,3.71,3.63,7.74,7.04,12.03,9.93,4.74,3.19,9.88,5.83,14.98,8.45,2.19,1.13,2.81,2.27,2,4.65-4.77,14.01-8.5,28.48-17.88,40.42-1.91,2.44-4.06,4.74-6.36,6.81-2.6,2.34-5.46,2.13-8.12-.14-3.77-3.22-6.06-7.27-4.7-12.23,1.74-6.3-2.3-10.64-7.37-12.43-8.21-2.89-15.49-1.33-21.65,4.88-5.54,5.58-7.45,15.23-4.5,22.28,1.83,4.37,4.85,6.49,9.58,6.2,4.99-.3,9.39.91,13.25,4.07,5.63,4.61,5.88,9.23.5,14.12-7.16,6.5-15.67,10.62-24.88,13.28-4.05,1.17-9.04,3.6-12.14,2.2-2.67-1.21-3.22-7.04-4.76-10.81-2.92-7.15-5.68-14.38-8.93-21.39-1.44-3.11-3.67-5.94-5.96-8.54-3.2-3.64-7.37-4.61-11.91-2.73-4.75,1.96-8.18,5.09-8.87,10.61-.38,3.04-.59,6.36-1.98,8.98-3.48,6.56-10.57,8.39-18.21,5.33-9.6-3.85-14.55-15.14-10.89-24.82,1.64-4.34,3.78-5.56,8.32-4.65,4.21.84,8.17.26,11.92-1.87,8.82-5,10.02-12.63,3.09-19.98-7.53-7.99-16.97-12.46-27.52-14.93-4.24-.99-8.4-2.31-12.62-3.38-2.35-.6-3.39-1.52-2.32-4.18,3.41-8.44,6.44-17.03,9.96-25.42,3.05-7.25,8.38-12.63,15.24-16.46,3.6-2.01,7.47-3.63,11.29-1.13,4.17,2.72,6.37,7.14,5.52,11.94-1.06,5.98-.02,10.57,5.23,13.92,5.66,3.62,11.35,3.13,17.08.28,9.34-4.65,14.22-12.96,12.94-21.94-.99-7.02-4.74-10.37-11.86-10.09-4.69.19-8.59-1.21-11.83-4.51-3.85-3.91-4.08-7.89.26-11.22,4.41-3.38,9.18-6.82,14.36-8.57,12.46-4.21,25.25-7.44,38.42-11.21v.02Z"/>
  <path class="cls-1" d="m558.66,244.88c-16.31,44.69-42.36,82.99-72.97,119.07-3.4-6.34-6.22-12.3-9.67-17.87-4.06-6.56-8.63-12.81-13.06-19.14-.99-1.42-2.23-2.72-3.55-3.85-3.54-3.02-6.83-7.32-12.27-5.19-6.2,2.42-10.11,7.28-10.08,14.01.03,8.46-5.59,12.02-11.6,12.61-7.94.77-13.54-3.45-17.63-9.83-3.49-5.44-3.73-11.01.05-16.47,2.97-4.28,6.97-6.18,12.26-5.36,6.61,1.04,11.08-1.66,13.06-7.65,2.2-6.65-.03-12.47-5.82-15.64-12.97-7.1-25.92-14.26-38.81-21.49-.63-.36-1.24-1.94-.97-2.56,3.25-7.41,6.27-14.96,10.17-22.02,3.06-5.55,8.65-8.42,14.66-10.34,3.85-1.23,7.09-.09,8.51,3.32,1.57,3.77,2.89,8.06,2.73,12.07-.28,7,1.38,10.45,8.12,12.69,13.63,4.55,28.43-6.12,27.82-20.04-.36-8.29-5.98-14.11-14.23-14.31-4.22-.1-8.14-.31-9.65-5.15-1.61-5.19-1.57-10.34,2.7-14.22,2.63-2.39,5.83-4.35,9.09-5.8,10.37-4.61,20.91-8.82,31.33-13.33,2.76-1.19,4.14-.75,5.32,2.16,3.68,9.04,9.43,16.71,16.54,23.34,3.74,3.49,8.04,5.65,13.29,3.61,5.66-2.21,9.34-6.33,10.14-12.38.31-2.35-.4-4.93-1.05-7.29-1.27-4.67-.37-7.77,3.73-10.2,6.44-3.82,13.05-3.89,19.56-.17,6.43,3.68,10.22,9,9.9,16.73-.2,4.91-1.61,6.75-6.54,7.49-5.91.9-11.07,2.91-14.51,8.14-4.43,6.73-3.75,13.23,2.97,17.55,4.51,2.9,9.9,4.46,14.96,6.45,1.57.62,3.37.67,5.51,1.07h-.01Z"/>
  <path class="cls-1" d="m196.56,442.78c-29.42-25.64-57.52-52.28-83.88-81.68,1.77-.57,2.98-1,4.22-1.36,13.72-3.95,26.21-10.31,37.44-19.1,2.15-1.68,4.22-3.57,5.94-5.67,3.49-4.26,3.14-8.64-1.04-12.23-5.1-4.37-11.09-6.58-17.89-6.42-4.88.12-6.61-1.25-7.56-5.79-2.55-12.25,7.3-24.81,19.8-25.23,7.88-.27,12.69,4.88,11.93,12.63-.2,2.08-.39,4.3.12,6.28,1.8,6.97,7.61,10.04,14.47,7.81,9.08-2.95,14.71-9.65,18.44-17.99,2.59-5.78,4.71-11.79,6.71-17.81.94-2.82,1.93-3.8,5.02-2.73,7.16,2.48,14.53,4.33,21.65,6.9,7.13,2.58,13.34,6.8,18.37,12.54,4.87,5.55,4.16,10.64-1.87,14.87-3.64,2.55-7.56,3.54-12.05,2.69-5.89-1.1-8.5.52-10.63,6.1-5.14,13.43,4.94,28.48,19.32,28.83,8.4.2,15.08-6.44,15.74-15.32.18-2.39.6-5.11,1.89-7.01,4.32-6.34,12.06-6.63,16.65-.47,2.95,3.96,5.42,8.41,7.33,12.96,3.56,8.48,6.55,17.19,9.87,26.03-6.31,1.83-12.15,3.17-17.74,5.22-7.36,2.69-14.58,5.77-21.72,9.02-2.31,1.05-4.33,2.96-6.16,4.8-3.91,3.92-4.67,8.41-2.59,13.72,2.17,5.52,5.58,8.74,11.72,8.42,5.41-.29,9.38,1.84,11.91,6.72,2.75,5.29,2.18,10.55-.71,15.36-4.53,7.52-13.8,10.88-22.13,8.55-5.99-1.68-7.69-4.12-7.06-10.25.51-4.91-.66-9.45-3.25-13.58-3.71-5.93-8.76-7.11-14.68-3.37-7.52,4.75-13.53,11.09-18.07,18.66-3.38,5.64-6.2,11.62-9.52,17.92v-.02Z"/>
  <path class="cls-1" d="m296.66,363.26c2.06,5.47,3.32,10.22,5.56,14.47,3.58,6.81,7.02,13.94,11.92,19.76,7.95,9.45,14.55,7.59,20.57-1.69,1.87-2.88,2.16-7.05,2.39-10.68.31-4.83,1.27-6.75,5.96-7.52,7.72-1.25,14.45.92,19.36,7.12,4.46,5.63,5.25,12.01,2.24,18.65-2.19,4.83-5.3,6.37-10.51,5.46-7.45-1.31-16.18,4.54-16.52,12.02-.15,3.34,1.58,7.34,3.69,10.11,8.16,10.72,19.35,17.84,30.93,24.34,3.46,1.94,7.02,3.68,10.99,5.74-1.11,1.03-1.92,1.89-2.84,2.62-25.44,20.16-51.83,38.99-79.25,56.38-2.52,1.6-4.14,1.49-6.58-.24-32.01-22.64-62.72-46.93-92.61-72.27-2.5-2.12-3.04-3.79-1.79-6.9,4.87-12.02,11.66-22.58,21.99-30.63,1.56-1.21,3.28-2.3,5.08-3.1,3.37-1.51,6.4-.79,8.66,2.17,2.88,3.77,4.58,7.97,4.28,12.84-.57,9.23,2.06,12.47,11.29,14.02,9.79,1.64,20.52-4.95,23.5-14.43,3.43-10.87-3.81-20.56-15.14-20.09-5.16.21-7.76-3.24-9.7-6.96-2.01-3.87-1.92-8.45,1.47-11.46,3.85-3.42,8.18-6.78,12.89-8.66,10.48-4.18,21.33-7.41,32.16-11.08h0Z"/>
  <path class="cls-1" d="m130.39,178.41c5.61-.98,10.73-1.97,15.89-2.74,7.05-1.06,13.01-4.07,17.99-9.18,3.31-3.4,5.78-6.96,3.83-11.98-1.9-4.88-7.04-8.5-12.14-8.6-9.65-.19-13.44-4.47-12.53-14.19,1.04-11.21,12.23-19.01,22.95-16,5.41,1.52,8.02,4.8,7.58,10.41-.48,6.02.46,11.16,6.14,14.52,6.16,3.65,12.13,3.18,17.98-.61,9.2-5.95,15.41-14.43,20.15-24.11,1.37-2.79,2.63-5.68,3.54-8.64.7-2.26,1.79-2.54,3.85-2.03,11.21,2.8,21.84,7.01,31.8,12.88,3.05,1.8,5.61,4.2,4.81,8.1-.85,4.15-2.77,8.07-7.18,9.28-2.74.75-5.95.71-8.74.1-5.14-1.13-8.79.04-11.42,4.56-4.02,6.93-2.77,16.84,2.91,22.98,6.28,6.79,15.04,8.79,22.75,5.16,3.74-1.76,6.09-4.68,5.6-8.86-.95-8.27,4.69-11.67,10.65-14.41,5.45-2.5,10.72-.2,14.96,3.25,10.44,8.48,18.58,23.12,22.33,34.19-6.32,1.46-12.56,3.05-18.87,4.34-9.62,1.97-18.78,5.07-27.24,10.09-1.18.7-2.39,1.36-3.49,2.18-4.04,3-8.45,5.9-7,12.01,1.2,5.07,7.72,9.81,13.61,10.18.5.03,1,.02,1.5.02,8.84.03,12.87,4.9,11.24,13.58-1.6,8.51-10.86,16.32-19.51,16.45-8.12.12-12.62-4.95-11.67-12.94.72-6.04-1.23-11.22-6.25-14.72-4.78-3.33-9.61-1.5-14.1,1-9.2,5.11-14.66,13.31-18.31,22.9-2.39,6.29-4.71,12.62-7.09,18.92-.43,1.14-.96,2.24-1.57,3.65-13.13-4.51-25.68-9.58-35.67-19.32-5.23-5.1-6.73-10.86-4.48-15.48,2.35-4.82,9.63-8.33,15.95-7.67,6.18.64,9.73-1.71,11.14-7.83,1.71-7.48.3-14.25-5.88-19.29-6.35-5.17-13.54-6.12-21.11-3.07-4.06,1.64-5.44,4.5-5.02,8.96.15,1.6.25,3.27-.04,4.83-1,5.35-5.31,9.78-9.67,10.19-4.61.44-9.76-2.53-11.46-7.96-2.75-8.79-4.72-17.82-6.96-26.76-.63-2.52-1.07-5.09-1.74-8.34h0Z"/>
  <path class="cls-1" d="m128.34,179.31c2.04,8.92,3.95,17.68,6.06,26.38.79,3.25,1.76,6.53,3.17,9.55,2.97,6.32,9.33,9.56,14.89,7.99,5.79-1.64,10.38-8.67,9.92-15.19-.47-6.63,1.67-9.17,8.43-9.99,12.64-1.53,22.41,8.72,19.68,20.65-1.26,5.53-3.87,7.35-9.55,7.03-2.2-.12-4.55-.04-6.64.57-13.04,3.81-16.14,14.93-7.02,25,6.61,7.3,15.1,11.78,23.94,15.66,4.43,1.95,8.97,3.63,13.93,5.61-4.49,10.94-7.17,22.51-15.63,31.19-2.13,2.19-4.94,3.79-7.62,5.34-3.26,1.88-6.87,2.79-10.24.37-3.6-2.59-5.4-6.31-4.47-10.75,1.04-4.96.64-9.66-4.07-12.08-3.48-1.8-7.98-3.35-11.66-2.75-12.86,2.09-20.32,10.73-20,24.65.17,7.14,3.5,9.88,10.65,9.82,5.57-.05,10.55,1.82,14.92,5.2,4.42,3.42,5.12,7.48.79,10.99-6.83,5.55-14,10.92-21.7,15.12-6.93,3.78-14.79,5.87-22.21,8.76-1.98.77-3.4.47-4.89-1.24-23.25-26.69-44.88-54.55-61.72-85.83-.98-1.82-1.32-4.66-.67-6.59,4.41-13.13,9.18-26.16,16.64-37.94,2.11-3.33,4.79-6.38,7.57-9.2,3.2-3.24,7.24-3.93,11.38-1.9,4.38,2.14,7.47,5.43,7.72,10.63.05,1.11-.16,2.24-.3,3.35-.98,7.47,1.41,11.32,8.46,13.63,12.39,4.05,26.67-5.49,27.54-18.4.29-4.32-.96-8.12-3.71-11.45-2.32-2.81-5.14-4.08-8.89-3.58-6.13.82-10.01-1.67-12.48-7.63-2.18-5.28-.99-9.88,3.57-13.72,4.81-4.06,16.82-8.71,24.2-9.25h.01Z"/>
  <path class="cls-1" d="m481.57,185.04c-10.1,4.16-19.73,7.93-29.18,12.1-4.77,2.1-9.47,4.55-13.75,7.5-5.92,4.08-7.61,12.28-4.51,18.75,1.6,3.33,4.16,5.13,7.9,5.4,9.76.71,13.49,3.13,15.17,9.7,1.69,6.61-1.66,14.49-8.23,18.66-5.64,3.58-11.74,3.98-17.95,1.58-4.34-1.68-5.86-4.09-5.14-8.73.83-5.36-.38-10.17-3.15-14.66-2.59-4.2-5.75-5.42-10.53-4.21-9.41,2.38-15.64,8.52-19.67,17.05-2.13,4.51-3.94,9.17-5.89,13.76-.52,1.23-1.04,2.46-1.97,4.66-8.8-5.62-17.3-10.78-25.48-16.4-3.45-2.37-6.1-5.8-4.33-10.57,1.61-4.36,7.13-7.85,11.88-7.69,13.34.46,19.94-9.32,14.75-21.86-4.24-10.26-14.17-15.73-24.37-13.43-5.65,1.28-7.38,3.92-7.74,9.69-.23,3.77-1.08,7.69-2.59,11.13-2.23,5.07-7.14,6.54-12.29,4.41-4.92-2.03-8.25-5.6-9.67-10.73-2.49-8.99-4.85-18.03-7.37-27.44,3.45-1.23,7.19-2.23,10.61-3.87,5.26-2.52,10.52-5.14,15.38-8.33,7.71-5.05,4.55-19.29-1.6-22.8-1.72-.98-4-1.38-6.03-1.39-11.73-.11-16.92-6.91-13.83-18.36,2.73-10.11,14.09-16.11,23.96-12.65,5.44,1.91,7.41,4.54,6.19,10.22-1.68,7.81,2.7,13.51,10.19,15.82,5.35,1.65,10.27-.32,13.77-3.92,5.34-5.49,10.15-11.58,14.54-17.86,2.68-3.82,4.08-8.53,6.23-12.74.52-1.02,1.82-2.46,2.63-2.38,12.64,1.2,24.63,4.26,34.16,13.36,3.92,3.74,4.41,8.44,1.64,12.93-1.81,2.95-4.42,4.7-7.96,4.85-.62.03-1.25.02-1.87,0-13.94-.24-20.29,9.56-14.6,22.53,4.02,9.17,14.85,14.9,24.65,13.06,5.66-1.07,7.84-3.97,8.48-9.71.62-5.51,1.38-11.13,3.14-16.34,1.74-5.16,5.11-5.98,9.79-3.13,5.79,3.53,11.17,7.57,13.77,14.25,3.56,9.15,7.16,18.29,10.88,27.78h-.01Z"/>
  <path class="cls-1" d="m130.16,176.26c-1.23-4.12-2.26-7.95-3.53-11.71-3.01-8.88-8.09-16.15-16.2-21.24-6.05-3.8-12.43-3.27-16.47,2.58-2.16,3.13-3.81,7.09-4.21,10.84-.6,5.68-2.45,9.12-8.12,10.37-6.73,1.47-12.84.31-17.78-5-4.89-5.25-6.74-11.27-4.82-18.26,1.69-6.16,5.47-8.42,11.74-7.16,6.84,1.37,11.5-.79,14.96-6.92,3.67-6.5,3.25-12.79-1.16-17.6-7.91-8.64-17.04-15.71-27.34-21.28-1.73-.94-3.45-1.9-6.17-3.4,6.5-5.98,12.19-11.92,18.59-16.96,22.26-17.5,47.95-27.22,75.55-32.45,2.66-.5,3.07.98,3.92,2.78,2.53,5.39,4.9,10.92,8.04,15.95,2.98,4.77,7.5,8.06,13.57,6.38,6.1-1.68,10.06-6,11.55-12.14,1.95-8.06,8.76-11.55,16.59-8.21,7.72,3.29,12.38,13.16,10.02,21.21-1.55,5.3-4.23,6.78-9.93,6.93-4.02.1-8.14.89-11.97,2.14-4.32,1.41-7.74,4.37-8.08,9.34-.36,5.29,1.92,9.72,6.47,12.23,3.76,2.07,7.98,3.52,12.17,4.55,7.48,1.85,15.09,3.18,23.66,4.93-2.65,5.62-4.82,10.87-7.55,15.82-4.08,7.4-9.5,13.74-16.68,18.4-5.17,3.36-10.49,3.79-15.85.47-3.53-2.19-5.52-5.3-5.36-9.62.51-13.06-9.04-19.77-21.24-14.96-10.14,4-15.48,15.06-12.3,25.46,1.89,6.17,5.44,8.34,11.89,8.55,3.02.1,6.49,1.08,8.89,2.85,4.71,3.48,4.65,8.61.75,13.01-4.95,5.58-11.19,8.58-18.48,9.66-4.92.73-9.83,1.61-15.12,2.48v-.02Z"/>
  <path class="cls-1" d="m448.57,38.57c5.64,1.39,10.6,2.48,15.49,3.83,25.95,7.14,49.91,18.18,70.26,36.19,10.47,9.27,19.19,20,25.42,32.55,1.22,2.45,1.58,5.77,1.15,8.5-1.28,8.21-4.31,15.85-8.91,22.84-2.48,3.77-5.77,5.46-9.38,4.46-5.7-1.56-8.6-4.6-8.27-9.53.37-5.52-.47-10.4-4.76-14.32-3.24-2.96-6.92-4.27-11.3-3.89-12.89,1.12-22.44,14.95-18.96,27.55,1.21,4.38,4.49,6.79,9.09,6.71,5.54-.1,10.62,1.16,14.85,5.01,5.84,5.32,4.8,11.62-2.62,14.07-12.17,4.02-24.44,7.74-37.19,11.75-2.29-5.97-4.8-11.67-6.66-17.56-2.9-9.17-7.7-16.98-15.15-23.08-1.43-1.17-3.06-2.19-4.74-2.98-5.19-2.44-9.2-.92-11.73,4.27-2.52,5.16-3.39,10.62-3.33,16.34.07,6.44-2.6,8.98-9.11,9.11-12.58.25-21.74-8.72-21.31-20.86.29-8.18,3.91-11.49,12.11-10.88,4.41.33,8.5-.16,11.75-3.52,5.54-5.73,5.16-13.1-1.17-18.75-6.48-5.77-14.17-9.28-22.58-11.17-4.1-.93-8.27-1.52-12.6-2.3,2.92-13.4,5.88-26.49,11.9-38.68,3.57-7.22,9.2-11.67,17-13.4,4.63-1.03,7.32.49,8.26,5.12,1.02,5,1.72,10.08,2.17,15.16.33,3.77,1.94,6.42,5.28,7.95,7.13,3.27,14.21,2.97,20.65-1.48,6.67-4.61,10.4-11.11,9.68-19.47-.69-8.01-5.29-11.76-13.26-11.24-6.34.41-9.76-1.74-12.04-8.32v.02Z"/>
  <path class="cls-1" d="m317.46,182.12c-4.74-8.21-8.55-15.64-13.16-22.53-3.78-5.64-8.15-10.81-14.28-14.52-9.46-5.72-23.39-.05-25.27,10.85-.06.37-.1.74-.17,1.11-1.76,9.92-9.93,13.91-19.21,9.4-8.6-4.18-12.64-13.5-9.81-22.64,1.69-5.47,4.84-7.73,10.37-6.35,6.13,1.53,10.96.18,15.13-4.47,4.96-5.52,4.5-11.86-1.71-15.92-8.95-5.85-18.77-9.82-29.09-12.57-2.15-.57-4.3-1.17-6.77-1.85.52-3.09,1.19-5.97,1.46-8.89.6-6.58.85-13.2,1.55-19.77.34-3.19.99-6.47,2.19-9.43,3.28-8.08,13.58-10.58,20.43-5.32,16.84,12.94,31.39,28.13,44.39,44.85.68.87,1.4,1.72,2.16,2.65,3.79-5.3,7.3-10.57,11.19-15.55,15.89-20.38,35.65-35.81,59.44-46.05,2.83-1.22,5.01-1.03,7.53.87,6.01,4.55,11.28,9.54,12.7,17.36.33,1.82.5,3.73.39,5.58-.25,4.21-2.01,5.77-6.19,6.66-5.21,1.1-10.4,2.36-15.52,3.84-1.86.54-3.57,1.79-5.16,2.97-4.95,3.68-5.58,8.45-1.76,13.27,4.86,6.13,11.08,9.55,19.08,9.33,4.49-.12,8.99-.21,13.48-.23,1.45,0,2.9.24,4.82.41-3.68,10.14-8.5,19.07-15.45,26.7-2.56,2.82-5.63,5.34-8.87,7.34-4.35,2.69-8.9,1.97-12.99-1.01-3.82-2.79-5-6.45-4.05-11.18,1.27-6.35-1.52-10.64-7.62-12.64-8.6-2.83-17.61-.05-23.11,7.13-5.37,7.02-5.47,15.6-.42,23.35,1.73,2.65,3.91,4.1,7.11,3.87.75-.05,1.5,0,2.25,0,7.08-.19,11.19,2.39,12.99,8.18,1.97,6.33-.03,11.98-6.24,15.18-7.24,3.74-14.81,6.85-21.78,10.03h-.03Z"/>
  <path class="cls-1" d="m128.01,176.5c-5.58,1.82-10.64,3.19-15.47,5.13-3.31,1.34-6.59,3.11-9.38,5.32-8.24,6.52-6.97,19.12,2.36,24.07,1.66.88,3.85,1.31,5.71,1.14,7.96-.73,13.69,5.19,12.49,13.2-1.7,11.32-13.39,19.07-24.41,16.19-6.24-1.63-8.34-4.81-7.66-11.56.84-8.36-3.1-14.76-10.38-16.78-5.1-1.41-9.84-.05-12.85,3.92-4.71,6.21-9.21,12.74-12.69,19.69-4.11,8.22-7.05,17.04-10.49,25.59-.27.68-.56,1.35-1.22,2.92-2.01-4.17-3.75-7.64-5.38-11.17-16.56-35.76-21.53-72.99-13.65-111.69,3.71-18.21,11.31-34.79,22.46-49.73,1.93-2.58,3.44-2.98,6.36-1.44,11.26,5.96,21.27,13.46,29.83,22.9,3.19,3.52,3.42,9.16.58,14.34-2.74,4.99-6.83,7.34-11.51,6.6-10.29-1.63-16.16,3.46-16.15,14.02,0,13.53,13.08,23.56,25.96,19.57,7.07-2.19,9.9-5.63,9.12-12.1-.59-4.86,1.62-8.73,5.15-11.86,3.02-2.67,6.32-2.8,10.08-1.29,9.54,3.83,14.38,11.55,17.55,20.66,1.38,3.98,2.36,8.1,3.59,12.38v-.02Z"/>
  <path class="cls-1" d="m563.46,119.36c.9,2.11,1.46,3.27,1.9,4.47,6.44,17.67,7.73,36.05,6.9,54.6-.92,20.67-4.95,40.82-11.45,60.48-1.01,3.06-2.46,4.2-5.36,3.27-4.71-1.52-9.55-2.85-13.99-4.98-3.99-1.92-7.53-5.01-6.86-10.15.71-5.43,3.78-9.49,8.88-11.63,2.04-.86,4.33-1.16,6.53-1.56,5.92-1.07,8.36-3.96,8.34-10.02-.06-15.81-18.02-26.23-31.89-18.52-5.42,3.02-7.34,7.26-5.25,13.15,2.07,5.83.71,10.54-3.68,14.53-4.05,3.68-8.59,4.03-13.06,1.23-6.89-4.3-17.59-19.54-19.58-28.27,5.38-1.69,10.82-3.42,16.26-5.1,6.55-2.02,13.18-3.83,19.65-6.08,3.72-1.29,7.8-2.84,8.04-7.74.27-5.52-2.24-9.34-7.31-11.92-4-2.04-7.86-3.34-12.44-3.15-5.1.22-8.42-3.87-8.65-9.77-.34-9.07,6.34-18.04,15.2-20.41,9.47-2.53,17.45,4.06,16.75,13.83-.41,5.73,2.36,10.38,7.47,12.54,5.39,2.28,10.53.8,14.19-5.54,3.32-5.76,5.42-12.24,7.99-18.42.5-1.21.74-2.52,1.41-4.85h0Z"/>
  <path class="cls-1" d="m372.77,42.58c5.74-1.52,10.56-2.97,15.45-4.06,18.38-4.1,36.85-3.65,55.32-.73,1.09.17,2.45,1.28,2.91,2.3,3.16,6.97,8.41,9.68,15.95,8.81,4.16-.48,6.89,1.65,8.55,5.79,2.61,6.48-.06,15.13-6.21,20.12-5.89,4.78-15.71,5.97-20.96,1.95-1.79-1.37-2.96-4.16-3.47-6.5-1.11-5.09-1.26-10.39-2.45-15.45-1.22-5.2-4.62-7.17-9.84-6.12-8.44,1.69-15.35,6.08-18.58,14.14-3.93,9.79-7.17,19.89-10.1,30.03-2.83,9.8-2.5,9.9-12.59,9.96-3.74.02-7.49.17-11.23.04-6.85-.24-12.14-3.5-16.05-8.98-2.71-3.79-2.45-7.41,1.59-9.61,4.83-2.63,10.13-5,15.49-5.94,11.43-1.99,14.35-5.9,11.42-17.28-1.36-5.31-4.4-9.44-8.42-12.96-1.87-1.64-3.86-3.12-6.82-5.49l.04-.02Z"/>
  <path class="cls-1" d="m148.96,37.41c33.36-4.51,64.45-4.58,92.15,16.45-.81.29-1.4.61-2.03.72-8.81,1.54-13.02,7.33-14.11,15.68-.77,5.93-.98,11.92-1.58,17.87-.46,4.54-1.14,9.07-1.81,14.27-10.62-2.45-20.59-4.57-30.44-7.12-4.18-1.09-7.65-3.63-9.36-7.96-1.88-4.74-.94-8.9,3.68-11.16,3.57-1.74,7.76-2.96,11.7-3.06,10.55-.26,15.35-5.25,14.28-15.88-1.08-10.69-10.82-18.5-21.46-17.2-5.43.66-8.31,3.61-9.49,8.96-.55,2.49-1.52,5.1-3.01,7.11-5.31,7.16-12.86,7.51-18.01.3-3.99-5.58-6.74-12.06-10.49-18.98h-.02Z"/>
</svg>